<mxfile host="" modified="2022-04-15T00:21:58.402Z" agent="5.0 (Windows NT 10.0; Win64; x64) AppleWebKit/537.36 (KHTML, like Gecko) Code/1.44.0 Chrome/78.0.3904.130 Electron/7.1.11 Safari/537.36" etag="OfAtdzwY63TC-Ygqo7Gq" version="13.1.3">
    <diagram id="6hGFLwfOUW9BJ-s0fimq" name="Page-1">
        <mxGraphModel dx="1819" dy="577" grid="1" gridSize="10" guides="1" tooltips="1" connect="1" arrows="1" fold="1" page="1" pageScale="1" pageWidth="827" pageHeight="1169" math="0" shadow="0">
            <root>
                <mxCell id="0"/>
                <mxCell id="1" parent="0"/>
                <mxCell id="4" value="" style="edgeStyle=orthogonalEdgeStyle;rounded=0;orthogonalLoop=1;jettySize=auto;html=1;" edge="1" parent="1" source="2" target="3">
                    <mxGeometry relative="1" as="geometry"/>
                </mxCell>
                <mxCell id="8" value="" style="edgeStyle=orthogonalEdgeStyle;rounded=0;orthogonalLoop=1;jettySize=auto;html=1;" edge="1" parent="1" source="2" target="7">
                    <mxGeometry relative="1" as="geometry"/>
                </mxCell>
                <mxCell id="2" value="&lt;pre style=&quot;background-color: #2b2b2b ; color: #a9b7c6 ; font-family: &amp;#34;jetbrains mono&amp;#34; ; font-size: 9.8pt&quot;&gt;AspectJAutoProxyRegistrar.&lt;span style=&quot;color: #cc7832&quot;&gt;class&lt;/span&gt;&lt;/pre&gt;" style="rounded=0;whiteSpace=wrap;html=1;" vertex="1" parent="1">
                    <mxGeometry x="30" y="80" width="230" height="60" as="geometry"/>
                </mxCell>
                <mxCell id="10" value="" style="edgeStyle=orthogonalEdgeStyle;rounded=0;orthogonalLoop=1;jettySize=auto;html=1;" edge="1" parent="1" source="7" target="9">
                    <mxGeometry relative="1" as="geometry"/>
                </mxCell>
                <mxCell id="7" value="&lt;pre style=&quot;background-color: rgb(43 , 43 , 43)&quot;&gt;&lt;font color=&quot;#a9b7c6&quot; face=&quot;jetbrains mono&quot;&gt;&lt;span style=&quot;font-size: 13.0667px&quot;&gt;org.springframework.aop.aspectj.annotation.AnnotationAwareAspectJAutoProxyCreator&lt;/span&gt;&lt;span style=&quot;font-size: 9.8pt&quot;&gt;&lt;br&gt;&lt;/span&gt;&lt;/font&gt;&lt;/pre&gt;&lt;pre style=&quot;background-color: rgb(43 , 43 , 43)&quot;&gt;&lt;font color=&quot;#a9b7c6&quot; face=&quot;jetbrains mono&quot;&gt;&lt;span style=&quot;font-size: 13.0667px&quot;&gt;（重点）&lt;/span&gt;&lt;/font&gt;&lt;/pre&gt;" style="rounded=0;whiteSpace=wrap;html=1;" vertex="1" parent="1">
                    <mxGeometry x="-132.5" y="260" width="555" height="60" as="geometry"/>
                </mxCell>
                <mxCell id="9" value="&lt;pre style=&quot;background-color: rgb(43 , 43 , 43)&quot;&gt;&lt;font color=&quot;#a9b7c6&quot; face=&quot;jetbrains mono&quot;&gt;&lt;span style=&quot;font-size: 13.0667px&quot;&gt;org.springframework.aop.framework.autoproxy.AbstractAutoProxyCreator&lt;/span&gt;&lt;span style=&quot;font-size: 9.8pt&quot;&gt;&lt;br&gt;&lt;/span&gt;&lt;/font&gt;&lt;/pre&gt;" style="rounded=0;whiteSpace=wrap;html=1;" vertex="1" parent="1">
                    <mxGeometry x="502.5" y="260" width="555" height="60" as="geometry"/>
                </mxCell>
                <mxCell id="3" value="&lt;pre style=&quot;background-color: rgb(43 , 43 , 43)&quot;&gt;&lt;font color=&quot;#a9b7c6&quot; face=&quot;jetbrains mono&quot;&gt;&lt;span style=&quot;font-size: 13.0667px&quot;&gt;org.springframework.aop.config.AopConfigUtils#registerOrEscalateApcAsRequired&lt;/span&gt;&lt;span style=&quot;font-size: 9.8pt&quot;&gt;&lt;br&gt;&lt;/span&gt;&lt;/font&gt;&lt;/pre&gt;" style="rounded=0;whiteSpace=wrap;html=1;" vertex="1" parent="1">
                    <mxGeometry x="340" y="80" width="540" height="60" as="geometry"/>
                </mxCell>
                <mxCell id="6" style="edgeStyle=orthogonalEdgeStyle;rounded=0;orthogonalLoop=1;jettySize=auto;html=1;entryX=0;entryY=0.5;entryDx=0;entryDy=0;" edge="1" parent="1" source="5" target="2">
                    <mxGeometry relative="1" as="geometry"/>
                </mxCell>
                <mxCell id="5" value="&lt;pre style=&quot;background-color: #2b2b2b ; color: #a9b7c6 ; font-family: &amp;#34;jetbrains mono&amp;#34; ; font-size: 9.8pt&quot;&gt;&lt;span style=&quot;color: #bbb529&quot;&gt;EnableAspectJAutoProxy&lt;/span&gt;&lt;/pre&gt;" style="rounded=0;whiteSpace=wrap;html=1;" vertex="1" parent="1">
                    <mxGeometry x="-220" y="80" width="190" height="60" as="geometry"/>
                </mxCell>
            </root>
        </mxGraphModel>
    </diagram>
</mxfile>